<svg width="46" height="36" viewBox="0 0 46 36" fill="none" xmlns="http://www.w3.org/2000/svg">
<g clip-path="url(#clip0_6121_436)">
<path d="M29.3284 25.2125H16.9731V3.01416H29.3284V25.2125Z" fill="#8B8D92"/>
<path d="M17.7723 14.1138C17.7723 9.61473 19.8734 5.59527 23.1621 3.0146C20.7641 1.11905 17.7267 0 14.438 0C6.6503 0 0.324219 6.32608 0.324219 14.1138C0.324219 21.9015 6.6503 28.2276 14.438 28.2276C17.7267 28.2276 20.7641 27.1085 23.1621 25.213C19.8734 22.6323 17.7723 18.6128 17.7723 14.1138Z" fill="#BABBBE"/>
<path d="M45.9999 14.1138C45.9999 21.9015 39.6739 28.2276 31.8862 28.2276C28.5975 28.2276 25.5601 27.1085 23.1621 25.213C26.4508 22.6323 28.5518 18.6128 28.5518 14.1138C28.5518 9.61473 26.4508 5.59527 23.1621 3.0146C25.5601 1.11905 28.5975 0 31.8862 0C39.6739 0 45.9999 6.32608 45.9999 14.1138Z" fill="#74767C"/>
<path d="M33.5074 31.9044C33.6673 31.9044 33.9185 31.9273 34.0783 31.9958L33.8271 32.7723C33.6444 32.7038 33.4846 32.6809 33.3247 32.6809C32.7994 32.6809 32.5254 33.0235 32.5254 33.6401V35.7412H31.7032V31.9958H32.5025V32.4525C32.7309 32.11 33.0506 31.9044 33.5074 31.9044ZM30.4928 32.7266H29.1682V34.4166C29.1682 34.782 29.3052 35.0332 29.7163 35.0332C29.9219 35.0332 30.1959 34.9647 30.4471 34.8277L30.6755 35.5356C30.4243 35.7183 30.0132 35.8325 29.6478 35.8325C28.6886 35.8325 28.346 35.3073 28.346 34.4394V32.7266H27.5924V31.9729H28.346V30.8311H29.1682V31.9729H30.4928V32.7266ZM20.0559 33.5259C20.1473 32.9778 20.467 32.6124 21.0608 32.6124C21.586 32.6124 21.9286 32.9321 22.02 33.5259H20.0559ZM22.865 33.8685C22.865 32.7038 22.1342 31.9044 21.0836 31.9044C19.9874 31.9044 19.2109 32.7038 19.2109 33.8685C19.2109 35.0561 20.0102 35.8325 21.1293 35.8325C21.7002 35.8325 22.2027 35.6955 22.6594 35.3073L22.2483 34.7135C21.9286 34.9647 21.5404 35.1017 21.1521 35.1017C20.6269 35.1017 20.1473 34.8505 20.0331 34.1882H22.8193C22.8421 34.074 22.865 33.9827 22.865 33.8685ZM26.4505 32.955C26.2221 32.8179 25.7654 32.6352 25.2858 32.6352C24.829 32.6352 24.5778 32.7951 24.5778 33.0692C24.5778 33.3204 24.8519 33.3889 25.2173 33.4346L25.6055 33.4802C26.4277 33.5944 26.9073 33.937 26.9073 34.5993C26.9073 35.3073 26.2906 35.8325 25.1944 35.8325C24.5778 35.8325 24.0069 35.6727 23.5729 35.3529L23.9612 34.7135C24.2352 34.919 24.6463 35.1017 25.2173 35.1017C25.7654 35.1017 26.0623 34.9419 26.0623 34.645C26.0623 34.4394 25.8567 34.3252 25.4 34.2567L25.0117 34.2111C24.1667 34.0969 23.71 33.7086 23.71 33.1148C23.71 32.3612 24.3266 31.9044 25.2629 31.9044C25.8567 31.9044 26.4048 32.0415 26.7931 32.2927L26.4505 32.955ZM36.4992 32.6581C36.3393 32.6581 36.1794 32.6809 36.0424 32.7494C35.9054 32.8179 35.7683 32.8865 35.677 33.0006C35.5856 33.1148 35.4943 33.229 35.4258 33.3889C35.3573 33.5259 35.3344 33.7086 35.3344 33.8685C35.3344 34.0512 35.3573 34.2111 35.4258 34.3481C35.4943 34.4851 35.5628 34.6221 35.677 34.7363C35.7912 34.8505 35.9054 34.919 36.0424 34.9875C36.1794 35.0561 36.3393 35.0789 36.4992 35.0789C36.659 35.0789 36.8189 35.0561 36.9559 34.9875C37.0929 34.919 37.23 34.8505 37.3213 34.7363C37.4355 34.6221 37.504 34.5079 37.5725 34.3481C37.641 34.2111 37.6639 34.0284 37.6639 33.8685C37.6639 33.6858 37.641 33.5259 37.5725 33.3889C37.504 33.2519 37.4355 33.1148 37.3213 33.0006C37.2071 32.8865 37.0929 32.8179 36.9559 32.7494C36.8189 32.7038 36.659 32.6581 36.4992 32.6581ZM36.4992 31.9044C36.796 31.9044 37.0701 31.9501 37.2985 32.0643C37.5497 32.1557 37.7552 32.2927 37.9379 32.4754C38.1206 32.6581 38.2577 32.8636 38.3719 33.092C38.4632 33.3432 38.5317 33.5944 38.5317 33.8685C38.5317 34.1425 38.486 34.4166 38.3719 34.645C38.2805 34.8962 38.1206 35.1017 37.9379 35.2616C37.7552 35.4443 37.5497 35.5813 37.2985 35.6727C37.0473 35.764 36.7732 35.8325 36.4992 35.8325C36.2023 35.8325 35.9282 35.7869 35.6998 35.6727C35.4486 35.5813 35.2431 35.4443 35.0604 35.2616C34.8777 35.0789 34.7406 34.8733 34.6264 34.645C34.5351 34.3938 34.4666 34.1425 34.4666 33.8685C34.4666 33.5944 34.5123 33.3204 34.6264 33.092C34.7178 32.8408 34.8777 32.6352 35.0604 32.4754C35.2431 32.2927 35.4486 32.1557 35.6998 32.0643C35.9282 31.9501 36.2023 31.9044 36.4992 31.9044ZM15.3056 33.8685C15.3056 33.2062 15.7396 32.6581 16.4475 32.6581C17.1327 32.6581 17.5666 33.1834 17.5666 33.8685C17.5666 34.5536 17.1098 35.0561 16.4475 35.0561C15.7396 35.0561 15.3056 34.5308 15.3056 33.8685ZM18.3431 33.8685V31.9958H17.5209V32.4525C17.2697 32.11 16.8815 31.9044 16.3333 31.9044C15.2828 31.9044 14.4606 32.7266 14.4606 33.8685C14.4606 35.0104 15.2828 35.8325 16.3333 35.8325C16.8586 35.8325 17.2469 35.627 17.5209 35.2844V35.7412H18.3431V33.8685ZM13.7527 35.7412V33.3889C13.7527 32.4982 13.1817 31.9044 12.2682 31.9044C11.7886 31.9044 11.2862 32.0415 10.9436 32.5667C10.6924 32.1556 10.2813 31.9044 9.71037 31.9044C9.32213 31.9044 8.91105 32.0186 8.61415 32.4525V31.9958H7.79199V35.7412H8.61415V33.6629C8.61415 33.0235 8.97956 32.6581 9.52767 32.6581C10.0758 32.6581 10.3498 33.0006 10.3498 33.6401V35.7184H11.172V33.6401C11.172 33.0006 11.5602 32.6352 12.0855 32.6352C12.6336 32.6352 12.9077 32.9778 12.9077 33.6173V35.6955H13.7527V35.7412Z" fill="#A2A4A7"/>
</g>
<defs>
<clipPath id="clip0_6121_436">
<rect width="46" height="36" fill="white"/>
</clipPath>
</defs>
</svg>
