<svg width="64" height="18" viewBox="0 0 64 18" fill="none" xmlns="http://www.w3.org/2000/svg">
<g clip-path="url(#clip0_6121_442)">
<path fill-rule="evenodd" clip-rule="evenodd" d="M6.13921 0.656239C6.69945 0.652888 8.36443 0.502931 9.06968 2.88316C9.54475 4.48651 10.3015 7.11287 11.3399 10.7622H11.7629C12.8765 6.91482 13.6415 4.28846 14.0579 2.88316C14.7705 0.478136 16.552 0.656286 17.2646 0.656286L22.7625 0.656293V17.7586H17.1589V7.67994H16.7831L13.6594 17.7586H9.4434L6.31968 7.67247H5.94392V17.7586H0.340332V0.656293L6.13921 0.656239ZM30.8091 0.656293V10.7425H31.2561L35.0558 2.44868C35.7934 0.798191 37.3655 0.656293 37.3655 0.656293H42.7881V17.7587H37.0675V7.67247H36.6204L32.8952 15.9663C32.1576 17.6093 30.5111 17.7587 30.5111 17.7587H25.0885V0.656293H30.8091ZM62.5611 8.78346C61.7631 11.0447 59.2572 12.6641 56.4828 12.6641H50.4836V17.7587H45.0436V8.78346H62.5611Z" fill="#8B8D92"/>
<path fill-rule="evenodd" clip-rule="evenodd" d="M56.7451 0.65625H44.7583C45.0436 4.46382 48.3226 7.72335 51.717 7.72335H62.9391C63.5867 4.55881 61.3573 0.65625 56.7451 0.65625Z" fill="#5D6066"/>
</g>
<defs>
<clipPath id="clip0_6121_442">
<rect width="64" height="18" fill="white"/>
</clipPath>
</defs>
</svg>
